#!OML:ASF F:\VICON\USERDATA\INSTALL\rory3\rory3.ASF
:FULLY-SPECIFIED
:DEGREES
237
root -1.87346 16.8027 -2.67588 -161.68 3.02966 -172.353
lowerback 5.91766 0.190435 4.91844
upperback -0.356255 0.760552 1.85985
thorax -3.65735 0.338549 -0.906555
lowerneck -19.7262 1.09314 1.01718
upperneck 21.3778 1.35595 0.83231
head 10.0763 0.940443 0.341907
rclavicle -1.03368e-014 9.74045e-015
rhumerus -78.3553 -72.5481 39.8849
rradius 10.4712
rwrist 54.057
rhand -22.4465 17.5515
rfingers 7.12502
rthumb 3.97765 -12.3911
lclavicle -1.03368e-014 9.74045e-015
lhumerus -30.581 20.4095 20.1522
lradius 12.5608
lwrist -63.5422
lhand -11.9045 20.1385
lfingers 7.12502
lthumb 14.149 49.6367
rfemur -72.7297 -5.74238 31.1959
rtibia 62.3267
rfoot 34.4217 -23.9407
rtoes 27.2171
lfemur -26.3868 3.38205 -23.562
ltibia 45.6435
lfoot -29.8818 21.7454
ltoes -19.1394
238
root -1.86727 16.6968 -2.76935 -161.688 2.97655 -172.783
lowerback 6.04943 0.129772 4.69715
upperback -0.254474 0.644429 1.59686
thorax -3.62985 0.278591 -1.04503
lowerneck -19.4145 1.06165 0.996441
upperneck 20.4317 1.21487 1.06617
head 9.68069 0.878398 0.394307
rclavicle 5.46658e-015 -2.26615e-014
rhumerus -74.7609 -71.316 33.3526
rradius 10.0709
rwrist 51.0009
rhand -22.2083 16.3108
rfingers 7.12502
rthumb 4.20765 -13.6274
lclavicle 5.46658e-015 -2.26615e-014
lhumerus -31.3441 21.8421 22.202
lradius 12.3075
lwrist -65.4394
lhand -10.7048 20.0684
lfingers 7.12502
lthumb 15.3048 49.4821
rfemur -72.3302 -4.44334 30.0291
rtibia 58.3511
rfoot 30.4371 -29.6722
rtoes 35.3401
lfemur -25.6913 3.06022 -24.1178
ltibia 45.4157
lfoot -31.9265 21.44
ltoes -19.0367
239
root -1.85004 16.5957 -2.86969 -161.732 3.23807 -173.274
lowerback 6.1522 0.160485 4.05517
upperback -0.0345437 0.616111 1.35661
thorax -3.46297 0.274704 -0.931769
lowerneck -19.5501 1.12338 1.12948
upperneck 19.5748 1.19213 1.10908
head 9.40506 0.856968 0.375081
rclavicle 6.26172e-015 -6.75868e-015
rhumerus -71.2037 -69.8153 26.6094
rradius 9.87217
rwrist 47.78
rhand -21.7205 16.0581
rfingers 7.12502
rthumb 4.67865 -13.8703
lclavicle 6.26172e-015 -6.75868e-015
lhumerus -31.7996 23.0105 24.742
lradius 12.1972
lwrist -66.2804
lhand -9.15671 20.1133
lfingers 7.12502
lthumb 16.7956 49.4068
rfemur -71.7352 -2.66893 28.4042
rtibia 54.5373
rfoot 28.222 -29.6954
rtoes 34.7955
lfemur -25.1106 3.16302 -24.8512
ltibia 45.0833
lfoot -32.3338 23.0696
ltoes -23.8989
240
root -1.83931 16.5034 -2.97813 -161.883 3.30231 -173.681
lowerback 6.36629 0.0913547 3.62851
upperback 0.175454 0.483865 1.14004
thorax -3.37225 0.215739 -0.905448
lowerneck -19.8184 1.23685 1.30135
upperneck 18.9426 1.23783 1.17504
head 9.23398 0.879309 0.370737
rclavicle 1.09332e-015 9.93923e-015
rhumerus -67.2946 -68.7905 19.4556
rradius 9.57577
rwrist 45.4603
rhand -20.8035 15.7497
rfingers 7.12502
rthumb 5.56403 -14.1573
lclavicle 1.09332e-015 9.93923e-015
lhumerus -31.9997 23.7801 27.5786
lradius 12.0717
lwrist -66.6083
lhand -7.86079 19.9443
lfingers 7.12502
lthumb 18.0428 49.1274
rfemur -71.0414 -1.20071 26.8266
rtibia 51.0106
rfoot 12.848 -38.921
rtoes 51.2684
lfemur -24.1444 3.07428 -25.3835
ltibia 44.5632
lfoot -33.6638 23.3077
ltoes -23.1245
241
root -1.82476 16.4141 -3.0841 -162.076 3.23018 -174.416
lowerback 6.46488 0.010503 2.85771
upperback 0.556304 0.30424 0.880262
thorax -3.04255 0.143607 -0.725197
lowerneck -20.788 1.31574 1.38856
upperneck 18.7198 1.22022 1.36642
head 9.32945 0.885851 0.424461
rclavicle -7.95139e-016 7.95139e-016
rhumerus -63.7272 -68.296 12.6575
rradius 9.21522
rwrist 43.6764
rhand -19.9168 14.5771
rfingers 7.12502
rthumb 6.42015 -15.3056
lclavicle -7.95139e-016 7.95139e-016
lhumerus -31.381 23.7822 31.3795
lradius 11.88
lwrist -65.6847
lhand -6.78077 20.006
lfingers 7.12502
lthumb 19.0817 49.0899
rfemur -70.7169 0.0314561 24.7843
rtibia 47.9057
rfoot 24.387 -30.4873
rtoes 35.7466
lfemur -22.8883 2.63365 -26.1422
ltibia 43.8018
lfoot -35.952 21.9717
ltoes -17.5007
242
root -1.80095 16.3144 -3.19828 -162.359 3.30342 -175.491
lowerback 6.53687 -0.0201662 1.63009
upperback 0.884691 0.16039 0.532712
thorax -2.75008 0.0892629 -0.381817
lowerneck -21.5561 1.35091 1.38227
upperneck 18.5528 1.16896 1.64143
head 9.40634 0.885728 0.517774
rclavicle 2.5842e-015 -3.57812e-015
rhumerus -60.0651 -67.6737 5.75704
rradius 8.83033
rwrist 41.9781
rhand -19.1142 13.5105
rfingers 7.12502
rthumb 7.19493 -16.3472
lclavicle 2.5842e-015 -3.57812e-015
lhumerus -30.5233 23.4268 35.4141
lradius 11.8024
lwrist -64.3046
lhand -5.85066 20.244
lfingers 7.12502
lthumb 19.9759 49.2372
rfemur -70.7412 1.34449 22.14
rtibia 45.2549
rfoot 25.2455 -28.5218
rtoes 29.3066
lfemur -21.5189 2.40903 -27.2787
ltibia 42.893
lfoot -37.592 21.145
ltoes -14.2743
